<svg width="81" height="54" viewBox="0 0 81 54" fill="none" xmlns="http://www.w3.org/2000/svg">
<path opacity="0.2" fill-rule="evenodd" clip-rule="evenodd" d="M79.26 1.67074C78.7269 0.759086 77.5554 0.443846 76.6433 0.966642C75.7312 1.48944 75.4239 2.65229 75.957 3.56396C76.2155 4.00609 76.3339 4.75861 76.321 5.73348C76.279 8.92227 75.2569 12.186 74.113 15.4962C72.8081 19.2725 71.1319 22.9262 69.1834 26.4428C67.4208 29.6239 65.6287 32.7033 63.2944 35.1461C61.3813 37.1481 58.9664 38.6505 56.2977 39.7693C53.432 40.9706 50.3422 41.9168 47.3346 42.3128C44.6488 42.6664 41.7894 42.4372 38.9972 41.7887C40.3961 38.0935 40.9436 34.1199 40.7174 30.2008C40.5685 27.6212 40.0359 25.2563 39.2174 22.8663C38.4805 20.7144 37.5766 18.404 35.9075 16.3745C33.8646 13.8905 30.4452 10.7632 26.1203 11.0395C23.6103 11.1998 20.0221 12.0597 18.111 14.8232C15.3588 18.8027 15.9945 24.0834 17.1782 27.8122C18.0887 30.6803 19.3335 33.6655 21.622 36.1483C24.0944 38.8305 27.1726 41.0745 30.4005 42.6875C31.421 43.1975 32.4912 43.6701 33.5977 44.0939C30.6653 48.5267 25.2964 50.4549 19.9302 49.1023C14.8549 47.8229 10.1029 45.9171 7.49298 41.9878C7.41038 41.8635 7.32878 41.7373 7.24817 41.6097C7.63855 41.829 8.03215 42.0446 8.42815 42.2545C8.43161 42.2566 8.43794 42.2605 8.44771 42.2666C8.45531 42.2714 8.46309 42.2763 8.47231 42.2821C8.47989 42.287 8.48844 42.2924 8.49866 42.2989L8.50111 42.3005C8.52264 42.3142 8.55227 42.3331 8.5836 42.3526C8.64429 42.3904 8.73763 42.4472 8.84729 42.504C8.95609 42.5603 9.11213 42.6331 9.30281 42.6911C10.3155 42.9986 11.3804 42.4332 11.6812 41.4283C11.9642 40.4827 11.4699 39.4848 10.5667 39.1141L10.5456 39.1006C10.5258 39.088 10.4969 39.0696 10.4674 39.0511C10.4096 39.0149 10.3198 38.9597 10.2149 38.9041C9.0832 38.3045 7.95225 37.6433 6.82496 36.9623C6.22293 36.5986 5.74758 36.2032 5.39914 35.7532C5.39068 35.7423 5.37303 35.7178 5.31584 35.6342L5.30656 35.6206C5.26 35.5525 5.18656 35.4451 5.10554 35.3372C4.95346 35.1347 4.61996 34.7121 4.08365 34.4258C3.46737 34.0968 2.77699 34.1417 2.24802 34.4286C1.84194 34.6488 1.62889 34.9542 1.55482 35.0669C1.39255 35.3136 1.3192 35.5509 1.29747 35.6211L1.29701 35.6226C1.2363 35.8189 1.19766 36.0276 1.17324 36.1723C1.11913 36.4929 1.07122 36.897 1.03235 37.2661C0.955417 37.9967 0.892048 38.8167 0.892676 38.8102C0.844932 39.3284 0.774887 39.8259 0.697956 40.3725C0.673647 40.5452 0.648641 40.7228 0.623443 40.9075C0.522587 41.6465 0.424823 42.4612 0.408847 43.323C0.389976 44.341 0.459648 45.3455 0.523169 46.2613C0.532192 46.3914 0.541092 46.5197 0.549595 46.646C0.55182 46.679 0.554223 46.7126 0.556281 46.7414L0.55764 46.7604C0.560113 46.7951 0.562072 46.8234 0.563698 46.8496C0.56613 46.8887 0.567263 46.9152 0.567715 46.9336C0.337233 47.9215 0.932196 48.929 1.92606 49.208C2.94496 49.4941 3.99728 48.9062 4.27647 47.895C4.44111 47.2987 4.39016 46.7002 4.3714 46.4797C4.36941 46.4564 4.36778 46.4373 4.36681 46.4228C4.35767 46.287 4.34848 46.1536 4.33944 46.0222C4.28891 45.2883 4.24282 44.6188 4.23321 43.9568C4.25748 43.9938 4.28184 44.0307 4.3063 44.0675C7.78102 49.2989 13.839 51.4852 19.0192 52.7909C26.2112 54.6038 33.6452 51.7955 37.3567 45.298C40.7824 46.1837 44.3962 46.5428 47.8673 46.0857C51.2974 45.6341 54.7213 44.5721 57.808 43.2782C60.83 42.0113 63.7212 40.2459 66.0775 37.7801C68.7888 34.9429 70.7871 31.46 72.5375 28.3009C74.5773 24.6194 76.3473 20.7673 77.7321 16.7599C78.8662 13.478 80.0954 9.68528 80.1465 5.81479C80.1609 4.72216 80.0768 3.0676 79.26 1.67074ZM36.8979 30.3877C37.1014 33.9127 36.5865 37.4459 35.3148 40.6826C34.2061 40.2734 33.1272 39.8052 32.0953 39.2896C29.2531 37.8693 26.5621 35.8997 24.432 33.5889C22.7124 31.7232 21.676 29.3725 20.8256 26.6935C19.7454 23.2908 19.5402 19.4969 21.2686 16.9977C22.1608 15.7077 24.2107 14.977 26.3968 14.8374C28.7097 14.6896 31.0235 16.4218 32.9544 18.7697C34.1585 20.2338 34.8841 21.9849 35.597 24.0668C36.3252 26.193 36.7725 28.2144 36.8979 30.3877Z" fill="white"/>
</svg>
