<svg width="104" height="86" viewBox="0 0 104 86" fill="none" xmlns="http://www.w3.org/2000/svg">
<path opacity="0.2" fill-rule="evenodd" clip-rule="evenodd" d="M102.951 79.4565C103.321 78.9521 103.214 78.2416 102.71 77.8695C102.206 77.4974 101.497 77.6046 101.126 78.1089C100.432 79.0537 99.1768 79.7614 97.8589 80.3093C93.4358 82.1481 88.3836 82.6654 83.447 83.0422C77.7014 83.4808 71.9141 83.361 66.1631 82.8085C61.0408 82.3165 55.8379 81.7168 51.129 79.9955C47.195 78.5574 43.6947 76.147 40.6119 73.2215C37.3526 70.1285 34.27 66.565 31.9567 62.7565C29.5566 58.805 28.0866 54.133 27.4014 49.3717C33.3667 49.385 39.2571 47.8836 44.5603 45.2252C47.6769 43.663 50.3305 41.7388 52.8851 39.4205C55.2388 37.2847 57.5448 34.9815 59.0961 31.9564C61.1288 27.9927 62.905 22.4679 60.4687 17.7723C58.8957 14.7407 56.0422 11.1456 52.0894 10.3687C46.083 9.18824 40.0744 12.5641 36.0099 16.0884C32.8634 18.8167 29.898 21.9142 28.1122 25.9454C26.1167 30.4501 24.9906 35.4902 24.7385 40.3838C24.6277 42.5345 24.6596 44.7585 24.851 46.9965C24.7267 46.9864 24.6023 46.9757 24.478 46.9642C15.5832 46.1407 8.84964 39.4654 7.36581 30.6398C6.13684 23.3301 5.80302 15.5965 9.77086 9.49339C10.9159 7.73212 12.3137 6.02215 13.7768 4.44268C13.62 5.01283 13.5099 5.58861 13.434 6.16035C13.1858 8.0277 12.9591 9.93853 12.8154 11.8389C12.8113 11.8926 12.8044 11.9362 12.7923 12.0129C12.7852 12.0573 12.7764 12.1128 12.7654 12.1879C12.7437 12.3359 12.706 12.6071 12.7401 12.8934C12.8141 13.5158 13.3776 13.9609 13.9987 13.8874C14.6128 13.8147 15.0532 13.2625 14.9916 12.6484C14.9917 12.6465 14.9918 12.6441 14.992 12.6413C14.9936 12.6173 14.9976 12.5809 15.0064 12.5209C15.0088 12.5047 15.0113 12.4881 15.0141 12.4703C15.0163 12.4559 15.0187 12.4407 15.0213 12.4244C15.0267 12.3898 15.0332 12.3488 15.0394 12.3076C15.0516 12.226 15.0658 12.1229 15.0741 12.0129C15.2131 10.1742 15.4336 8.31135 15.6793 6.46246C15.8272 5.34982 16.1144 4.3149 16.6198 3.39719C16.6553 3.33272 16.7025 3.25693 16.774 3.14347L16.7842 3.12743C16.8479 3.02647 16.9285 2.89868 17.0046 2.76525C17.1545 2.50221 17.3684 2.08314 17.4074 1.58737C17.4403 1.17037 17.2489 0.802158 16.9618 0.579468C16.7405 0.407819 16.5166 0.36194 16.4295 0.346895C16.2388 0.313991 16.0672 0.331014 15.9946 0.33894C15.8124 0.35882 15.6022 0.404833 15.4123 0.451423C15.0143 0.549097 14.5002 0.70162 14.0045 0.856364C13.5034 1.01283 12.9996 1.1784 12.6143 1.307C12.4213 1.37142 12.2574 1.4268 12.1376 1.46739C12.0912 1.48314 12.0512 1.49671 12.0191 1.50762L11.9513 1.53062L11.9392 1.53472C11.2006 1.77591 10.4667 1.97728 9.70454 2.18643L9.70381 2.18663C9.47139 2.25041 9.23633 2.31491 8.9977 2.38149C7.99364 2.66162 6.95151 2.97216 5.91018 3.39859C4.64524 3.91659 3.44517 4.53539 2.28671 5.13273C2.12211 5.21761 1.95834 5.30204 1.79535 5.3857L1.75532 5.40626C1.35276 5.61294 1.20948 5.68651 1.04526 5.70949C0.425862 5.79621 -0.00555093 6.36971 0.0816762 6.99047C0.168896 7.61123 0.74172 8.04417 1.36112 7.95746C1.93133 7.87764 2.42504 7.61835 2.72972 7.45833C2.76578 7.4394 2.79924 7.42183 2.82981 7.40613C2.99789 7.31987 3.16441 7.23405 3.32973 7.14885C4.49615 6.54772 5.60234 5.97763 6.76909 5.49984C7.68403 5.12517 8.62248 4.84297 9.60753 4.56815C9.82529 4.5074 10.0468 4.44663 10.271 4.38512L10.2716 4.38496C10.4962 4.32336 10.7235 4.261 10.9525 4.19716C9.84495 5.47983 8.78924 6.84286 7.87251 8.25294C3.39982 15.1326 3.89254 23.6415 5.13215 31.0145C6.775 40.7859 14.2837 48.2997 24.2721 49.2243C24.5493 49.25 24.8264 49.2722 25.1035 49.2911C25.7992 54.4465 27.3701 59.5687 30.0222 63.935C32.4668 67.9598 35.6926 71.6775 39.0553 74.8687C42.3034 77.9512 46.0614 80.5582 50.3548 82.1277C55.3694 83.9607 60.8421 84.5773 65.9495 85.0679C71.8124 85.6311 77.7306 85.7551 83.6216 85.3055C88.5403 84.93 93.9312 84.4006 98.7289 82.4059C100.112 81.8311 101.868 80.9294 102.951 79.4565ZM43.5451 43.1951C38.4498 45.7492 32.809 47.1593 27.1339 47.1002C26.9292 44.8777 26.8897 42.6575 27.0006 40.5033C27.2396 35.8646 28.3083 31.0995 30.1827 26.8683C31.7673 23.2914 34.4358 20.4566 37.4932 17.8056C41.4042 14.4143 46.7031 11.6227 51.6558 12.596C54.5598 13.1668 56.9749 15.9569 58.4592 18.8176C60.3443 22.4508 59.0663 27.0464 57.0812 30.9172C55.7277 33.5565 53.6847 35.631 51.3635 37.7374C48.9315 39.9444 46.4453 41.7413 43.5451 43.1951ZM16.2424 2.59538C16.2526 2.59426 16.2501 2.5951 16.2375 2.59596C16.2393 2.59573 16.241 2.59553 16.2424 2.59538Z" fill="white"/>
</svg>
