<svg width="220" height="115" viewBox="0 0 220 115" fill="none" xmlns="http://www.w3.org/2000/svg">
<rect x="23.7256" y="15" width="202" height="52" rx="26" transform="rotate(14.1658 23.7256 15)" fill="#DCFF04"/>
<path d="M34.5215 52.7913L38.3172 37.7529L48.2362 40.2565L47.6924 42.4109L40.5251 40.6019L39.4483 44.8681L46.125 46.5533L45.5812 48.7077L38.9046 47.0225L37.2732 53.4858L34.5215 52.7913ZM46.7285 55.8723L50.5242 40.834L57.0942 42.4923C58.7438 42.9086 59.9178 43.6209 60.6163 44.6292C61.329 45.6411 61.5095 46.8438 61.1578 48.2374C60.9244 49.1618 60.519 49.899 59.9415 50.449C59.3782 51.0027 58.6749 51.3621 57.8315 51.5274C56.9916 51.6785 56.0597 51.6248 55.0359 51.3664L55.4368 51.0365L56.162 51.2195C56.7593 51.3703 57.2531 51.6613 57.6434 52.0926C58.0337 52.5239 58.2975 53.0972 58.4346 53.8125L59.4418 59.0812L56.4128 58.3167L55.4273 52.872C55.3538 52.324 55.1306 51.9197 54.7577 51.6592C54.399 51.4023 53.9353 51.202 53.3664 51.0585L51.02 50.4662L49.4802 56.5669L46.7285 55.8723ZM51.5315 48.4398L54.9018 49.2904C55.8688 49.5345 56.6514 49.5203 57.2497 49.2477C57.8657 48.9645 58.2724 48.4319 58.4698 47.6497C58.6673 46.8676 58.5602 46.2128 58.1488 45.6854C57.7516 45.1616 57.0695 44.7777 56.1025 44.5336L52.7322 43.6829L51.5315 48.4398ZM61.706 59.6527L65.5018 44.6144L75.634 47.1718L75.0902 49.3262L67.603 47.4364L66.5532 51.596L73.5497 53.3619L73.0006 55.5377L66.004 53.7717L64.9003 58.1446L72.3874 60.0344L71.8383 62.2101L61.706 59.6527ZM74.3922 62.8547L78.1879 47.8164L88.3201 50.3738L87.7763 52.5282L80.2892 50.6384L79.2393 54.798L86.2359 56.5639L85.6867 58.7397L78.6901 56.9737L77.5864 61.3466L85.0736 63.2364L84.5244 65.4122L74.3922 62.8547ZM96.4728 68.428L99.6978 55.6507L94.7277 54.3962L95.2984 52.1351L107.99 55.3386L107.42 57.5997L102.449 56.3452L99.2245 69.1225L96.4728 68.428ZM106.139 70.8677L109.934 55.8293L120.067 58.3867L119.523 60.5412L112.036 58.6514L110.986 62.8109L117.982 64.5769L117.433 66.7526L110.437 64.9867L109.333 69.3595L116.82 71.2493L116.271 73.4251L106.139 70.8677ZM123.81 75.5549C122.601 75.2498 121.523 74.8187 120.574 74.2617C119.644 73.694 118.884 73.0484 118.295 72.325L119.692 70.3859C120.089 70.8492 120.521 71.2682 120.986 71.6427C121.454 72.0031 121.971 72.3226 122.536 72.6013C123.105 72.8659 123.723 73.0825 124.392 73.2512C125.515 73.5347 126.372 73.5544 126.963 73.3103C127.554 73.0662 127.925 72.6455 128.076 72.0483C128.209 71.5221 128.139 71.0809 127.866 70.7245C127.596 70.354 127.044 69.965 126.209 69.5576L123.922 68.4586C122.615 67.826 121.704 67.0894 121.19 66.2487C120.676 65.408 120.561 64.426 120.844 63.3026C121.081 62.364 121.537 61.6091 122.21 61.0379C122.884 60.4667 123.717 60.1022 124.71 59.9444C125.703 59.7866 126.796 59.8584 127.991 60.1599C129.057 60.4291 130.006 60.835 130.837 61.3776C131.672 61.9059 132.323 62.5317 132.791 63.2549L131.421 65.0873C130.939 64.421 130.366 63.8754 129.702 63.4506C129.041 63.0116 128.263 62.679 127.367 62.4529C126.357 62.1981 125.518 62.1979 124.848 62.4525C124.197 62.6965 123.785 63.1598 123.612 63.8424C123.48 64.3686 123.544 64.8311 123.807 65.2301C124.083 65.6327 124.62 66.0252 125.416 66.4076L127.686 67.4799C129.036 68.1233 129.97 68.8582 130.488 69.6846C131.009 70.4968 131.131 71.4505 130.855 72.5454C130.629 73.4413 130.188 74.1696 129.532 74.7301C128.88 75.2765 128.064 75.6303 127.086 75.7918C126.111 75.939 125.019 75.86 123.81 75.5549ZM135.594 78.3022L138.819 65.5249L133.848 64.2704L134.419 62.0093L147.111 65.2128L146.54 67.4739L141.57 66.2194L138.345 78.9967L135.594 78.3022ZM151.113 82.2194L154.909 67.181L160.369 68.5593C162.09 68.9936 163.465 69.6584 164.495 70.5535C165.542 71.4381 166.23 72.5193 166.558 73.797C166.889 75.0606 166.854 76.4887 166.452 78.0814C166.054 79.6599 165.407 80.9337 164.512 81.9028C163.617 82.8719 162.497 83.5043 161.151 83.8001C159.82 84.0995 158.294 84.032 156.574 83.5977L151.113 82.2194ZM154.441 80.6315L156.979 81.2722C158.799 81.7316 160.26 81.6389 161.361 80.9939C162.461 80.349 163.234 79.1449 163.679 77.3815C164.128 75.6039 164.019 74.1773 163.353 73.1015C162.69 72.0115 161.448 71.2367 159.628 70.7773L157.09 70.1366L154.441 80.6315ZM165.385 85.8216L175.985 72.5008L178.289 73.0823L181.383 89.8597L178.589 89.1544L177.82 84.4678L178.741 85.4943L169.718 83.2169L171.058 82.7611L168.158 86.5216L165.385 85.8216ZM176.373 75.7298L171.567 82.0952L171.179 81.294L178.346 83.103L177.732 83.6512L176.458 75.7514L176.373 75.7298ZM185.32 90.8534L187.113 83.7502L187.275 85.538L183.229 74.329L186.407 75.1313L189.121 83.0771L188.524 82.9263L194.683 77.2203L197.755 77.9956L188.896 85.9472L189.865 84.4447L188.072 91.5479L185.32 90.8534Z" fill="#111111"/>
<path d="M16.0584 20.4214C11.7446 18.5275 6.69098 16.9551 2 17.9975" stroke="#DCFF04" stroke-width="3" stroke-linecap="round"/>
<path d="M17.9978 13.1498C16.3174 9.01335 12.4756 6.52109 14.1196 2" stroke="#DCFF04" stroke-width="3" stroke-linecap="round"/>
<path d="M24.7847 14.6042C25.4019 13.2972 25.7515 10.7269 27.2085 10.2412" stroke="#DCFF04" stroke-width="3" stroke-linecap="round"/>
</svg>
