<svg width="137" height="108" viewBox="0 0 137 108" fill="none" xmlns="http://www.w3.org/2000/svg">
<g opacity="0.2">
<path fill-rule="evenodd" clip-rule="evenodd" d="M63.5914 29.5606C64.9893 29.1463 66.5624 28.984 67.7329 28.8789C69.973 28.6776 72.2715 28.7693 74.4463 28.9103C75.1233 28.9542 75.781 29.0021 76.4243 29.049C77.9103 29.1573 79.3201 29.26 80.7157 29.2947C85.7128 29.4188 90.1987 30.4134 94.7671 31.6656C95.1988 31.784 95.5772 31.897 95.9434 32.0065C96.4721 32.1645 96.9756 32.3149 97.578 32.4629C98.5266 32.6958 99.2355 32.7838 99.7232 32.7365C100.23 32.6874 100.715 32.7983 101.128 33.0278C101.915 32.6879 102.7 32.3832 103.47 32.1008C107.141 30.7544 110.772 31.7338 113.55 32.483C113.788 32.5471 114.019 32.6095 114.244 32.6686C116.448 33.2486 118.399 34.8276 119.842 36.4644C121.309 38.1282 122.525 40.1621 123.098 42.0651C123.907 44.7576 123.981 47.9045 123.409 50.8333C122.84 53.7512 121.58 56.6971 119.476 58.8263C117.005 61.3255 113.053 64.2817 108.8 65.9424C104.604 67.581 99.4224 68.19 95.3361 64.7424C92.3331 62.2088 90.4136 58.9798 89.4892 55.3707C89.2241 55.2707 88.9722 55.1221 88.7469 54.9241C88.2355 54.4746 87.9437 54.3221 87.75 54.262C87.6043 54.2167 87.3478 54.1693 86.8014 54.3157C85.0633 54.7814 84.4385 55.6939 83.1235 57.6147C82.8044 58.0808 82.4446 58.6064 82.0183 59.1994C81.8945 59.3716 81.7523 59.5226 81.5963 59.6518C81.539 60.4832 81.4301 61.3121 81.2716 62.1242C80.7021 65.0421 79.4425 67.9881 77.338 70.1172C74.8675 72.6164 70.9147 75.5726 66.6621 77.2333C62.4663 78.8719 57.2845 79.4809 53.1982 76.0333C49.5975 72.9954 47.5545 68.9576 46.9169 64.4635C42.1819 61.8914 37.4623 59.3988 32.6677 56.9571C30.5297 55.8684 29.2035 55.2859 27.2284 55.1426C26.537 55.0925 25.8146 55.1718 24.8233 55.2924L24.7309 55.3037C23.829 55.4136 22.6829 55.5534 21.4895 55.4741C20.4922 55.4079 19.7982 55.8233 19.1195 56.9414C18.3745 58.1686 17.9164 59.8778 17.5757 61.5423C17.308 62.8505 16.0306 63.694 14.7224 63.4263C13.4143 63.1586 12.5708 61.8811 12.8385 60.5729C13.1878 58.8659 13.7719 56.4323 14.9861 54.4322C16.2666 52.3228 18.4489 50.4261 21.8099 50.6493C22.5145 50.6961 23.2442 50.6134 24.2394 50.4924L24.3069 50.4842C25.2162 50.3734 26.3733 50.2325 27.5782 50.3199C30.5679 50.5367 32.6168 51.5049 34.862 52.6482C38.953 54.7316 42.9871 56.8503 47.0186 59.0212C47.0396 58.0323 47.2269 57.0617 47.5167 56.152C48.34 53.5681 50.0419 51.2028 51.4929 49.5166C54.253 46.3092 57.943 44.6349 61.3324 43.3917C65.0029 42.0454 68.6343 43.0247 71.4122 43.7739C71.6498 43.838 71.8812 43.9004 72.1058 43.9595C74.3097 44.5396 76.2608 46.1185 77.7039 47.7553C79.003 49.2286 80.1056 50.992 80.7385 52.6978C81.882 51.4037 83.3768 50.2273 85.5499 49.645C86.6743 49.3438 87.7596 49.2882 88.8208 49.544C88.8451 49.1232 88.9008 48.6597 89.0179 48.1968C89.0546 48.0517 89.0998 47.8966 89.1563 47.7357C89.1768 46.745 89.3643 45.7724 89.6546 44.8611C90.4778 42.2771 92.1798 39.9118 93.6307 38.2257C94.0783 37.7057 94.5502 37.2259 95.0413 36.7818C94.7977 36.7112 94.5605 36.6411 94.3399 36.5759C94.0062 36.4772 93.7106 36.3898 93.4888 36.329C89.0598 35.115 85.0138 34.2383 80.5957 34.1286C79.0784 34.091 77.4835 33.9748 75.9464 33.8629C75.3299 33.818 74.7227 33.7738 74.1335 33.7356C72.0096 33.5979 70.0177 33.5285 68.1656 33.6949C66.98 33.8014 65.8481 33.9351 64.9653 34.1967C63.9904 34.4856 63.2992 35.0986 62.6168 36.1199C62.263 36.6494 61.9386 37.2488 61.5801 37.9443C61.5135 38.0736 61.4447 38.2082 61.374 38.3467L61.3738 38.347C61.0847 38.9129 60.7631 39.5423 60.4227 40.132C59.755 41.2883 58.2764 41.6845 57.12 41.0169C55.9637 40.3493 55.5674 38.8706 56.2351 37.7142C56.5075 37.2425 56.7565 36.7555 57.0389 36.2032L57.0435 36.1942C57.1201 36.0443 57.1992 35.8897 57.2819 35.7292C57.6521 35.0109 58.0807 34.2052 58.5962 33.4336C59.6524 31.8529 61.1644 30.2798 63.5914 29.5606ZM94.0835 48.6883C94.2602 48.1673 94.2531 47.6001 94.0667 47.0853C94.1127 46.8441 94.1779 46.5924 94.2619 46.3289C94.795 44.6556 96.0099 42.8741 97.2959 41.3797C99.215 39.1496 101.917 37.821 105.135 36.6405C107.314 35.8415 109.499 36.4179 112.657 37.251L112.67 37.2543C112.783 37.2842 112.897 37.3143 113.013 37.3448C113.907 37.58 115.081 38.3765 116.215 39.6622C117.325 40.9209 118.136 42.3567 118.467 43.4575C119.019 45.2919 119.108 47.6325 118.664 49.9071C118.218 52.1925 117.284 54.1658 116.037 55.427C113.94 57.5487 110.539 60.0723 107.041 61.4383C103.487 62.8263 100.521 62.7908 98.4542 61.0466C96.2212 59.1626 94.7844 56.7457 94.1135 53.9306C94.3669 53.8184 94.6052 53.6605 94.8159 53.4566C95.7755 52.5282 95.8008 50.9976 94.8723 50.0379C94.4739 49.6261 94.2136 49.1822 94.0835 48.6883ZM51.9456 59.9792C52.1223 59.4583 52.1153 58.891 51.9288 58.3762C51.9748 58.1351 52.04 57.8833 52.124 57.6199C52.6571 55.9465 53.8721 54.1651 55.158 52.6706C57.0771 50.4405 59.7788 49.112 62.9975 47.9314C65.1757 47.1324 67.3611 47.7089 70.5194 48.5419C70.6366 48.5729 70.7551 48.6041 70.8751 48.6357C71.769 48.8709 72.9433 49.6674 74.077 50.9532C75.1867 52.2118 75.9982 53.6476 76.3292 54.7484C76.8808 56.5828 76.9696 58.9234 76.5257 61.198C76.0797 63.4835 75.1457 65.4567 73.899 66.7179C71.8018 68.8396 68.4008 71.3633 64.9031 72.7292C61.3487 74.1173 58.3836 74.0817 56.3163 72.3375C54.0833 70.4536 52.6465 68.0366 51.9756 65.2215C52.229 65.1094 52.4673 64.9515 52.678 64.7475C53.6377 63.8191 53.6629 62.2885 52.7345 61.3289C52.336 60.917 52.0757 60.4731 51.9456 59.9792Z" fill="#7469FF"/>
</g>
</svg>
