<svg width="86" height="75" viewBox="0 0 86 75" fill="none" xmlns="http://www.w3.org/2000/svg">
<g opacity="0.2">
<path d="M45.7517 65.5316C50.2192 62.927 54.1002 59.2452 58.0674 55.9525C62.3776 52.3752 66.3746 48.6457 70.2126 44.5687C72.8326 41.7856 75.3417 38.9053 77.9581 36.1209C79.0146 34.9965 81.6911 32.8835 82.1159 31.2981C82.1649 31.1152 81.765 31.4374 81.583 31.4851C80.531 31.7608 79.5529 32.2014 78.5427 32.6023C75.361 33.8652 72.2073 35.1829 69.1198 36.6741C65.9818 38.1897 62.8967 39.763 59.7178 41.1912C57.7273 42.0855 55.5314 42.6613 53.5901 43.6015C52.9375 43.9175 53.0846 43.3956 53.2162 42.9044C53.9721 40.0834 54.5335 37.2253 55.0711 34.3547C56.3764 27.3848 56.6322 20.5231 56.7417 13.4734C56.7527 12.7664 56.8149 12.0803 56.7593 11.3735C56.6733 10.2814 55.973 11.2876 55.4386 11.7107C48.8759 16.9053 43.3373 22.7687 37.5271 28.8057C35.8636 30.5341 34.1372 33.329 32.0938 34.6689C31.6316 34.972 31.8441 34.0422 31.7828 33.7374C31.3591 31.6306 30.6524 29.5988 30.0299 27.5507C28.0665 21.091 25.8138 14.5967 23.0658 8.4393C22.7122 7.64716 22.3504 8.02567 21.9666 8.64737C20.6435 10.7907 19.6196 13.2415 18.8197 15.6258C16.7167 21.894 15.4364 28.4547 13.2294 34.6873C11.6768 39.0719 10.679 43.6823 9.47443 48.1779" stroke="#7469FF" stroke-width="4" stroke-linecap="round"/>
<path d="M50.7067 68.9901C41.3845 58.1546 25.4251 55.0454 12.2631 51.2627C9.1028 50.3544 5.96662 49.5602 2.8607 48.728" stroke="#7469FF" stroke-width="4" stroke-linecap="round"/>
</g>
</svg>
