<svg width="75" height="48" viewBox="0 0 75 48" fill="none" xmlns="http://www.w3.org/2000/svg">
<path opacity="0.3" fill-rule="evenodd" clip-rule="evenodd" d="M74.0161 1.23832C73.5426 0.386643 72.4682 0.0723645 71.6163 0.536352C70.7644 1.00034 70.4577 2.0669 70.9312 2.91857C71.1608 3.33162 71.2549 4.02817 71.2235 4.92721C71.1208 7.86796 70.1126 10.8582 68.9911 13.8889C67.7116 17.3463 66.0921 20.6831 64.2242 23.8881C62.5345 26.7873 60.8196 29.5921 58.6173 31.7987C56.8124 33.6071 54.5546 34.9447 52.0703 35.9232C49.4027 36.974 46.5335 37.785 43.751 38.09C41.2664 38.3624 38.6332 38.0936 36.0705 37.4395C37.435 34.0587 38.0197 30.4041 37.8896 26.7843C37.8039 24.4017 37.36 22.2095 36.6528 19.9883C36.0162 17.9885 35.2286 15.839 33.7296 13.9335C31.8949 11.6011 28.8032 8.64764 24.808 8.81583C22.4894 8.91344 19.1622 9.63481 17.3438 12.1457C14.7252 15.7616 15.2058 20.6456 16.223 24.1091C17.0054 26.7732 18.0939 29.5519 20.1553 31.8881C22.3822 34.4119 25.1769 36.5436 28.1222 38.0963C29.0534 38.5872 30.0311 39.0446 31.0434 39.4578C28.2494 43.4881 23.2581 45.1593 18.335 43.8039C13.6788 42.5221 9.33332 40.6688 7.0045 36.9918C6.9308 36.8754 6.85805 36.7574 6.78625 36.638C7.14197 36.8481 7.50073 37.055 7.86183 37.2565C7.86499 37.2586 7.87074 37.2622 7.87963 37.2681C7.88655 37.2726 7.89363 37.2773 7.90202 37.2829C7.90891 37.2875 7.91669 37.2927 7.92598 37.2989L7.92822 37.3004C7.9478 37.3135 7.97476 37.3315 8.00326 37.3501C8.05849 37.3862 8.14346 37.4405 8.24348 37.495C8.34272 37.5492 8.4852 37.6195 8.65994 37.6768C9.588 37.9807 10.5816 37.4806 10.8792 36.5596C11.1593 35.6929 10.7233 34.7624 9.89754 34.4024L9.87834 34.3896C9.86036 34.3776 9.83406 34.36 9.80722 34.3423C9.75463 34.3078 9.67286 34.255 9.57719 34.2016C8.54526 33.6258 7.51523 32.9933 6.48898 32.3425C5.94091 31.9949 5.51033 31.6206 5.19792 31.1985C5.19034 31.1883 5.17454 31.1653 5.12346 31.087L5.11518 31.0743C5.07359 31.0106 5.008 30.91 4.93542 30.8089C4.79918 30.6191 4.50001 30.2225 4.01101 29.9476C3.4491 29.6318 2.81134 29.6594 2.31762 29.9134C1.9386 30.1084 1.73595 30.3859 1.66537 30.4883C1.51073 30.7127 1.43831 30.9301 1.41686 30.9945L1.4164 30.9959C1.35647 31.1757 1.31664 31.3675 1.29122 31.5004C1.23487 31.795 1.18258 32.1669 1.13932 32.5066C1.05371 33.1791 0.978825 33.9342 0.979536 33.9282C0.925108 34.4052 0.850521 34.8629 0.768601 35.3655C0.742716 35.5243 0.716088 35.6877 0.689143 35.8575C0.581294 36.5373 0.474784 37.2868 0.442776 38.0815C0.404966 39.0202 0.449107 39.9482 0.48935 40.7943C0.495067 40.9145 0.500705 41.033 0.506018 41.1497C0.507409 41.1802 0.508952 41.2113 0.510273 41.2378L0.511146 41.2554C0.512732 41.2875 0.513973 41.3136 0.514948 41.3378C0.516406 41.374 0.516923 41.3983 0.51697 41.4154C0.284558 42.322 0.813209 43.2634 1.72444 43.5407C2.65862 43.825 3.64114 43.3038 3.91896 42.3766C4.08278 41.8298 4.04778 41.2766 4.03489 41.0729C4.03352 41.0513 4.0324 41.0337 4.0318 41.0204C4.02608 40.8949 4.02028 40.7716 4.01457 40.6502C3.98267 39.9722 3.95357 39.3537 3.95797 38.7428C3.97962 38.7774 4.00135 38.8119 4.02318 38.8464C7.1237 43.7419 12.6683 45.8801 17.4207 47.1884C24.0188 49.0049 30.9329 46.5633 34.4868 40.6438C37.6293 41.5296 40.9557 41.9332 44.1668 41.5811C47.3401 41.2333 50.5199 40.3222 53.3932 39.1904C56.2063 38.0823 58.9088 36.5117 61.1319 34.2843C63.6898 31.7214 65.603 28.5485 67.281 25.6694C69.2365 22.3142 70.9465 18.7961 72.3043 15.1271C73.4162 12.1224 74.6261 8.6483 74.7508 5.07888C74.786 4.07124 74.7416 2.54326 74.0161 1.23832ZM34.3624 26.8802C34.4795 30.136 33.9337 33.3849 32.6958 36.3453C31.6812 35.9456 30.6953 35.4921 29.7537 34.9957C27.1603 33.6286 24.7174 31.7578 22.7988 29.5834C21.2498 27.8279 20.3408 25.6386 19.61 23.1502C18.6818 19.9897 18.5686 16.4858 20.2131 14.215C21.0619 13.0429 22.9676 12.4099 24.987 12.3249C27.1235 12.2349 29.2232 13.8792 30.9575 16.0838C32.0388 17.4585 32.6731 19.0884 33.2891 21.0232C33.9181 22.9992 34.2902 24.8728 34.3624 26.8802Z" fill="#7469FF"/>
</svg>
