<svg width="30" height="30" viewBox="0 0 30 30" fill="none" xmlns="http://www.w3.org/2000/svg">
<g clip-path="url(#clip0_587_2805)">
<path d="M4.2375 10.5937C4.2375 7.56957 6.68842 5.11865 9.7125 5.11865H20.6625C23.6866 5.11865 26.1375 7.56957 26.1375 10.5937V12.0308C24.5763 12.3474 23.4 13.7289 23.4 15.3843V17.4374H6.975V15.3843C6.975 13.7289 5.79873 12.3474 4.2375 12.0308V10.5937ZM24.7687 15.3843C24.7687 14.4903 25.3419 13.7289 26.1375 13.4466C26.3514 13.3696 26.5823 13.3312 26.8219 13.3312C27.9554 13.3312 28.875 14.2508 28.875 15.3843V22.9124C28.875 23.6695 28.2633 24.2812 27.5063 24.2812H26.1375C25.3804 24.2812 24.7687 23.6695 24.7687 22.9124H5.60625C5.60625 23.6695 4.99459 24.2812 4.2375 24.2812H2.86875C2.11166 24.2812 1.5 23.6695 1.5 22.9124V15.3843C1.5 14.2508 2.41963 13.3312 3.55312 13.3312C3.79266 13.3312 4.02363 13.3739 4.2375 13.4466C5.03309 13.7289 5.60625 14.4903 5.60625 15.3843V17.4374V18.8062H6.975H23.4H24.7687V17.4374V15.3843Z" fill="white"/>
</g>
<defs>
<clipPath id="clip0_587_2805">
<rect width="27.375" height="21.9" fill="white" transform="translate(1.5 3.75)"/>
</clipPath>
</defs>
</svg>
