<svg width="62" height="49" viewBox="0 0 62 49" fill="none" xmlns="http://www.w3.org/2000/svg">
<g opacity="0.2">
<path d="M38.6181 45.3929C41.461 42.5257 43.644 38.9648 45.9705 35.6799C48.4982 32.1109 50.759 28.4905 52.8296 24.6402C54.2431 22.0119 55.5534 19.3326 56.9639 16.704C57.5335 15.6425 59.125 13.508 59.125 12.2265C59.125 12.0787 58.8885 12.4025 58.7609 12.4753C58.0233 12.8957 57.3746 13.4257 56.6938 13.9322C54.5495 15.5276 52.4373 17.1586 50.4102 18.9072C48.3498 20.6843 46.341 22.4943 44.2322 24.2138C42.9118 25.2905 41.372 26.1685 40.098 27.2698C39.6697 27.6401 39.6752 27.2167 39.6752 26.8197C39.6752 24.5394 39.5209 22.2704 39.3463 19.9969C38.9223 14.4767 37.7286 9.25002 36.3865 3.91124C36.252 3.37588 36.1602 2.8458 35.9755 2.324C35.69 1.5178 35.3652 2.41816 35.0476 2.84518C31.1479 8.08902 28.1558 13.6303 24.9938 19.3573C24.0885 20.997 23.3513 23.4536 22.081 24.8771C21.7937 25.1991 21.766 24.4549 21.6582 24.2375C20.9129 22.7342 19.9694 21.3447 19.086 19.9258C16.2999 15.4509 13.2887 11.0083 9.97187 6.91991C9.54516 6.39394 9.34875 6.75252 9.18495 7.29895C8.62022 9.18279 8.34331 11.238 8.22185 13.1978C7.90255 18.3501 8.26275 23.5567 7.85776 28.7031C7.57284 32.3236 7.75205 36.0022 7.75205 39.6361" stroke="white" stroke-width="4" stroke-linecap="round"/>
<path d="M43.0537 47C33.8336 40.712 21.1691 41.5922 10.4784 41.3991C7.91141 41.3527 5.38571 41.3875 2.87514 41.3875" stroke="white" stroke-width="4" stroke-linecap="round"/>
</g>
</svg>
