<svg width="24" height="24" viewBox="0 0 24 24" fill="none" xmlns="http://www.w3.org/2000/svg">
<g opacity="0.5">
<path d="M15.5556 11.9996C15.5556 11.0566 15.181 10.1523 14.5142 9.48554C13.8474 8.81878 12.943 8.4442 12 8.4442C11.057 8.4442 10.1526 8.81878 9.48585 9.48554C8.81905 10.1523 8.44445 11.0566 8.44445 11.9996C8.44445 12.9425 8.81905 13.8468 9.48585 14.5136C10.1526 15.1803 11.057 15.5549 12 15.5549C12.943 15.5549 13.8474 15.1803 14.5142 14.5136C15.181 13.8468 15.5556 12.9425 15.5556 11.9996ZM15.5556 11.9996V13.3328C15.5556 13.9222 15.7897 14.4874 16.2064 14.9041C16.6232 15.3208 17.1884 15.5549 17.7778 15.5549C18.3671 15.5549 18.9324 15.3208 19.3491 14.9041C19.7659 14.4874 20 13.9222 20 13.3328V11.9996C20 10.4174 19.5308 8.87076 18.6518 7.55524C17.7727 6.23972 16.5233 5.2144 15.0615 4.60893C13.5997 4.00347 11.9911 3.84505 10.4393 4.15371C8.88743 4.46238 7.46197 5.22426 6.34315 6.34302C5.22433 7.46178 4.4624 8.88716 4.15372 10.4389C3.84504 11.9907 4.00347 13.5991 4.60897 15.0609C5.21447 16.5226 6.23985 17.7719 7.55544 18.6509C8.87103 19.5299 10.4178 19.9991 12 19.9991C13.4046 20.0005 14.7846 19.6313 16 18.9272" stroke="white" stroke-width="2" stroke-linecap="round" stroke-linejoin="round"/>
</g>
</svg>
