<svg width="30" height="30" viewBox="0 0 30 30" fill="none" xmlns="http://www.w3.org/2000/svg">
<g clip-path="url(#clip0_603_3574)">
<path d="M8.25 1.5C6.38848 1.5 4.875 3.01348 4.875 4.875V9.9375H8.25V4.875H20.2049L21.75 6.42012V9.9375H25.125V6.42012C25.125 5.52363 24.7717 4.66406 24.1389 4.03125L22.5938 2.48613C21.9609 1.85332 21.1014 1.5 20.2049 1.5H8.25ZM21.75 20.0625V21.75V25.125H8.25V21.75V20.9062V20.0625H21.75ZM25.125 21.75H26.8125C27.7459 21.75 28.5 20.9959 28.5 20.0625V15C28.5 13.1385 26.9865 11.625 25.125 11.625H4.875C3.01348 11.625 1.5 13.1385 1.5 15V20.0625C1.5 20.9959 2.2541 21.75 3.1875 21.75H4.875V25.125C4.875 26.9865 6.38848 28.5 8.25 28.5H21.75C23.6115 28.5 25.125 26.9865 25.125 25.125V21.75ZM24.2812 14.5781C24.6169 14.5781 24.9388 14.7115 25.1762 14.9488C25.4135 15.1862 25.5469 15.5081 25.5469 15.8438C25.5469 16.1794 25.4135 16.5013 25.1762 16.7387C24.9388 16.976 24.6169 17.1094 24.2812 17.1094C23.9456 17.1094 23.6237 16.976 23.3863 16.7387C23.149 16.5013 23.0156 16.1794 23.0156 15.8438C23.0156 15.5081 23.149 15.1862 23.3863 14.9488C23.6237 14.7115 23.9456 14.5781 24.2812 14.5781Z" fill="white"/>
</g>
<defs>
<clipPath id="clip0_603_3574">
<rect width="27" height="27" fill="white" transform="translate(1.5 1.5)"/>
</clipPath>
</defs>
</svg>
