<svg width="30" height="30" viewBox="0 0 30 30" fill="none" xmlns="http://www.w3.org/2000/svg">
<g clip-path="url(#clip0_587_2798)">
<path d="M9.3 6.59998C4.57969 6.59998 0.75 10.4297 0.75 15.15C0.75 19.8703 4.57969 23.7 9.3 23.7H20.7C25.4203 23.7 29.25 19.8703 29.25 15.15C29.25 10.4297 25.4203 6.59998 20.7 6.59998H9.3ZM22.8375 11.2312C23.3099 11.2312 23.763 11.4189 24.097 11.7529C24.4311 12.087 24.6187 12.5401 24.6187 13.0125C24.6187 13.4849 24.4311 13.938 24.097 14.272C23.763 14.6061 23.3099 14.7937 22.8375 14.7937C22.3651 14.7937 21.912 14.6061 21.578 14.272C21.2439 13.938 21.0562 13.4849 21.0562 13.0125C21.0562 12.5401 21.2439 12.087 21.578 11.7529C21.912 11.4189 22.3651 11.2312 22.8375 11.2312ZM18.2062 17.2875C18.2062 16.8151 18.3939 16.362 18.728 16.0279C19.062 15.6939 19.5151 15.5062 19.9875 15.5062C20.4599 15.5062 20.913 15.6939 21.247 16.0279C21.5811 16.362 21.7687 16.8151 21.7687 17.2875C21.7687 17.7599 21.5811 18.213 21.247 18.547C20.913 18.8811 20.4599 19.0687 19.9875 19.0687C19.5151 19.0687 19.062 18.8811 18.728 18.547C18.3939 18.213 18.2062 17.7599 18.2062 17.2875ZM8.23125 12.6562C8.23125 12.064 8.70773 11.5875 9.3 11.5875C9.89227 11.5875 10.3687 12.064 10.3687 12.6562V14.0812H11.7937C12.386 14.0812 12.8625 14.5577 12.8625 15.15C12.8625 15.7422 12.386 16.2187 11.7937 16.2187H10.3687V17.6437C10.3687 18.236 9.89227 18.7125 9.3 18.7125C8.70773 18.7125 8.23125 18.236 8.23125 17.6437V16.2187H6.80625C6.21398 16.2187 5.7375 15.7422 5.7375 15.15C5.7375 14.5577 6.21398 14.0812 6.80625 14.0812H8.23125V12.6562Z" fill="white"/>
</g>
<defs>
<clipPath id="clip0_587_2798">
<rect width="28.5" height="22.5" fill="white" transform="translate(0.75 3.75)"/>
</clipPath>
</defs>
</svg>
