<svg width="126" height="100" viewBox="0 0 126 100" fill="none" xmlns="http://www.w3.org/2000/svg">
<g opacity="0.2">
<path fill-rule="evenodd" clip-rule="evenodd" d="M57.8365 27.9541C59.1003 27.549 60.5286 27.3698 61.5916 27.2506C63.626 27.0225 65.7195 27.0599 67.7014 27.1446C68.3183 27.1709 68.9177 27.2013 69.5041 27.2311C70.8585 27.2998 72.1435 27.365 73.4141 27.3686C77.9639 27.3812 82.0659 28.1963 86.2483 29.2442C86.6436 29.3432 86.9901 29.4385 87.3256 29.5308C87.8098 29.6639 88.271 29.7907 88.8222 29.9133C89.6901 30.1062 90.3369 30.1721 90.7798 30.1192C91.2395 30.0644 91.6831 30.1555 92.064 30.3561C92.773 30.0311 93.4817 29.738 94.1768 29.4656C97.4899 28.1668 100.814 28.9851 103.357 29.6111C103.574 29.6647 103.786 29.7168 103.992 29.7661C106.009 30.2497 107.816 31.6474 109.162 33.1079C110.531 34.5926 111.679 36.419 112.237 38.1392C113.028 40.5732 113.158 43.4353 112.697 46.1119C112.237 48.7786 111.15 51.4846 109.278 53.4643C107.08 55.7882 103.542 58.5576 99.7057 60.1541C95.9204 61.7294 91.2173 62.3875 87.4296 59.3322C84.6462 57.0869 82.8347 54.1871 81.921 50.9214C81.6778 50.8357 81.4456 50.7056 81.2366 50.5299C80.7622 50.1311 80.4936 49.9982 80.3162 49.9474C80.1827 49.9091 79.9483 49.8711 79.454 50.0153C77.8817 50.474 77.3315 51.3169 76.1734 53.0911C75.8923 53.5217 75.5754 54.0072 75.1994 54.5554C75.0902 54.7145 74.9639 54.8548 74.8245 54.9755C74.789 55.7332 74.7066 56.4897 74.5786 57.2319C74.1189 59.8986 73.0318 62.6046 71.1594 64.5843C68.9615 66.9081 65.4238 69.6775 61.5872 71.2741C57.8019 72.8493 53.0988 73.5075 49.3112 70.4522C45.9736 67.76 44.0335 64.1266 43.3631 60.0498C39.0028 57.8043 34.658 55.6306 30.246 53.505C28.2786 52.5571 27.06 52.0536 25.2599 51.9629C24.6297 51.9312 23.9739 52.0179 23.0742 52.1475L22.9904 52.1596C22.1719 52.2777 21.1317 52.4279 20.0442 52.3797C19.1354 52.3395 18.5121 52.7314 17.9169 53.7625C17.2636 54.8942 16.881 56.4587 16.6044 57.9802C16.3871 59.176 15.2415 59.9692 14.0457 59.7518C12.85 59.5345 12.0568 58.3889 12.2741 57.1931C12.5578 55.6327 13.0404 53.4065 14.1052 51.562C15.2282 49.6168 17.176 47.8471 20.239 47.9828C20.8811 48.0112 21.5435 47.9213 22.4466 47.7912L22.5079 47.7824C23.3331 47.6634 24.3832 47.5119 25.4814 47.5672C28.2064 47.7046 30.0902 48.5445 32.1563 49.5399C35.9209 51.3537 39.6344 53.2008 43.3465 55.0953C43.3458 54.1951 43.4968 53.308 43.7422 52.4744C44.4395 50.1065 45.9408 47.92 47.2274 46.3565C49.6747 43.3824 52.999 41.7848 56.0583 40.5855C59.3714 39.2868 62.6956 40.1051 65.2385 40.7311C65.456 40.7847 65.6678 40.8368 65.8734 40.8861C67.8906 41.3697 69.6977 42.7674 71.0438 44.2279C72.2555 45.5425 73.2943 47.1251 73.9043 48.6647C74.919 47.4641 76.2556 46.3636 78.2215 45.7901C79.2386 45.4934 80.2251 45.4211 81.1959 45.6326C81.2096 45.2492 81.2509 44.8262 81.3482 44.4027C81.3787 44.27 81.4168 44.1279 81.465 43.9804C81.4637 43.0784 81.6148 42.1896 81.8607 41.3545C82.558 38.9866 84.0593 36.8 85.3458 35.2366C85.7426 34.7544 86.1625 34.3084 86.6005 33.8944C86.3774 33.835 86.1601 33.7759 85.9581 33.721C85.6524 33.6379 85.3817 33.5644 85.1786 33.5135C81.1239 32.4975 77.4245 31.781 73.4019 31.7698C72.0205 31.7659 70.5667 31.6923 69.1658 31.6213C68.6038 31.5928 68.0504 31.5647 67.5135 31.5418C65.578 31.4591 63.764 31.4359 62.0819 31.6245C61.0052 31.7452 59.9778 31.8896 59.1798 32.1453C58.2985 32.4278 57.6817 32.9994 57.0813 33.9425C56.77 34.4315 56.4867 34.9834 56.1745 35.6235C56.1165 35.7425 56.0566 35.8664 55.995 35.9938L55.9948 35.9941C55.7431 36.5148 55.4631 37.0941 55.1651 37.6374C54.5808 38.7031 53.2432 39.0933 52.1775 38.509C51.1118 37.9247 50.7216 36.5871 51.306 35.5214C51.5444 35.0866 51.7612 34.6385 52.0071 34.1302L52.0111 34.1219C52.0778 33.984 52.1467 33.8417 52.2187 33.694C52.5412 33.0329 52.9151 32.2911 53.3687 31.5787C54.298 30.1191 55.6424 28.6573 57.8365 27.9541ZM85.9678 44.7483C86.118 44.2707 86.1003 43.7546 85.9203 43.2899C85.9573 43.0696 86.0116 42.8392 86.0827 42.5978C86.5343 41.0643 87.6041 39.4189 88.7444 38.0332C90.446 35.9653 92.8779 34.7021 95.7831 33.5632C97.7492 32.7925 99.7495 33.2732 102.64 33.9679L102.652 33.9707C102.755 33.9956 102.86 34.0207 102.966 34.0461C103.784 34.2422 104.869 34.9434 105.926 36.0907C106.961 37.2138 107.728 38.5041 108.052 39.4992C108.59 41.1574 108.718 43.2855 108.36 45.3643C108 47.453 107.189 49.2673 106.08 50.44C104.214 52.4128 101.17 54.7776 98.0147 56.0907C94.808 57.4252 92.1091 57.4523 90.1929 55.9066C88.1231 54.237 86.7672 52.0664 86.1002 49.5181C86.3285 49.411 86.5422 49.2625 86.7299 49.0728C87.5845 48.2086 87.5768 46.8153 86.7126 45.9607C86.3418 45.5939 86.096 45.1952 85.9678 44.7483ZM47.8493 55.8683C47.9996 55.3907 47.9818 54.8746 47.8018 54.4099C47.8389 54.1895 47.8931 53.9592 47.9642 53.7177C48.4158 52.1843 49.4857 50.5388 50.6259 49.1531C52.3275 47.0852 54.7594 45.8221 57.6646 44.6832C59.6307 43.9125 61.631 44.3932 64.5217 45.0879C64.629 45.1137 64.7375 45.1397 64.8473 45.1661C65.6654 45.3622 66.7501 46.0634 67.8075 47.2107C68.8426 48.3338 69.6098 49.6241 69.9331 50.6192C70.4719 52.2774 70.5997 54.4055 70.2413 56.4843C69.8813 58.573 69.0709 60.3873 67.9618 61.56C66.0959 63.5328 63.0517 65.8975 59.8962 67.2107C56.6896 68.5451 53.9907 68.5722 52.0745 67.0265C50.0047 65.3569 48.6487 63.1864 47.9817 60.6381C48.2101 60.531 48.4237 60.3825 48.6114 60.1927C49.4661 59.3286 49.4583 57.9352 48.5942 57.0806C48.2233 56.7138 47.9776 56.3151 47.8493 55.8683Z" fill="white"/>
</g>
</svg>
