<svg width="75" height="48" viewBox="0 0 75 48" fill="none" xmlns="http://www.w3.org/2000/svg">
<path opacity="0.3" fill-rule="evenodd" clip-rule="evenodd" d="M74.0161 1.23844C73.5426 0.386767 72.4682 0.0724904 71.6163 0.536476C70.7644 1.00047 70.4577 2.06702 70.9312 2.9187C71.1608 3.33173 71.2549 4.02829 71.2235 4.92733C71.1208 7.86808 70.1126 10.8583 68.9911 13.889C67.7116 17.3464 66.0921 20.6833 64.2242 23.8883C62.5345 26.7874 60.8196 29.5922 58.6173 31.7988C56.8124 33.6072 54.5546 34.9448 52.0703 35.9234C49.4027 36.9741 46.5335 37.7851 43.7511 38.0901C41.2664 38.3625 38.6332 38.0937 36.0705 37.4396C37.435 34.0588 38.0197 30.4043 37.8896 26.7844C37.8039 24.4018 37.36 22.2096 36.6529 19.9884C36.0162 17.9886 35.2286 15.8392 33.7296 13.9336C31.8949 11.6012 28.8032 8.64776 24.808 8.81595C22.4894 8.91356 19.1622 9.63494 17.3438 12.1459C14.7252 15.7617 15.2058 20.6458 16.223 24.1092C17.0054 26.7733 18.0939 29.5521 20.1553 31.8882C22.3822 34.4121 25.1769 36.5438 28.1222 38.0964C29.0534 38.5873 30.0311 39.0448 31.0434 39.4579C28.2494 43.4883 23.2581 45.1594 18.335 43.8041C13.6788 42.5222 9.33332 40.6689 7.0045 36.9919C6.9308 36.8755 6.85805 36.7576 6.78625 36.6381C7.14197 36.8483 7.50073 37.0551 7.86183 37.2567C7.86499 37.2587 7.87074 37.2624 7.87963 37.2682C7.88655 37.2727 7.89363 37.2774 7.90202 37.283C7.90891 37.2876 7.91669 37.2928 7.92599 37.299L7.92822 37.3005C7.9478 37.3136 7.97476 37.3316 8.00326 37.3502C8.05849 37.3863 8.14346 37.4406 8.24348 37.4952C8.34272 37.5493 8.4852 37.6196 8.65994 37.6769C9.588 37.9809 10.5816 37.4807 10.8792 36.5597C11.1593 35.693 10.7233 34.7626 9.89754 34.4025L9.87834 34.3897C9.86036 34.3777 9.83406 34.3601 9.80722 34.3424C9.75463 34.3079 9.67286 34.2551 9.57719 34.2018C8.54526 33.626 7.51524 32.9934 6.48898 32.3426C5.94091 31.995 5.51033 31.6207 5.19792 31.1986C5.19034 31.1884 5.17454 31.1654 5.12346 31.0872L5.11518 31.0745C5.07359 31.0107 5.008 30.9101 4.93542 30.809C4.79918 30.6192 4.50001 30.2226 4.01101 29.9477C3.4491 29.6319 2.81134 29.6595 2.31762 29.9135C1.9386 30.1085 1.73595 30.386 1.66537 30.4884C1.51073 30.7128 1.43831 30.9302 1.41686 30.9946L1.4164 30.996C1.35647 31.1758 1.31664 31.3676 1.29122 31.5005C1.23487 31.7952 1.18258 32.167 1.13932 32.5068C1.05371 33.1792 0.978825 33.9343 0.979536 33.9283C0.925108 34.4054 0.850521 34.863 0.768601 35.3656C0.742716 35.5244 0.716088 35.6878 0.689143 35.8576C0.581294 36.5374 0.474784 37.2869 0.442776 38.0816C0.404967 39.0203 0.449107 39.9483 0.489351 40.7944C0.495067 40.9146 0.500706 41.0331 0.506019 41.1498C0.507409 41.1803 0.508953 41.2114 0.510274 41.238L0.511147 41.2555C0.512732 41.2876 0.513974 41.3137 0.514948 41.3379C0.516406 41.3741 0.516923 41.3985 0.51697 41.4155C0.284558 42.3222 0.813209 43.2635 1.72444 43.5408C2.65862 43.8251 3.64114 43.3039 3.91896 42.3767C4.08278 41.8299 4.04778 41.2767 4.03489 41.073C4.03352 41.0514 4.0324 41.0338 4.0318 41.0205C4.02608 40.895 4.02028 40.7717 4.01457 40.6504C3.98267 39.9723 3.95357 39.3538 3.95797 38.7429C3.97962 38.7775 4.00135 38.812 4.02318 38.8465C7.1237 43.742 12.6683 45.8802 17.4207 47.1886C24.0188 49.005 30.9329 46.5634 34.4868 40.6439C37.6293 41.5297 40.9557 41.9333 44.1669 41.5813C47.3401 41.2334 50.5199 40.3223 53.3932 39.1905C56.2063 38.0825 58.9088 36.5118 61.1319 34.2844C63.6898 31.7215 65.603 28.5487 67.281 25.6695C69.2365 22.3143 70.9465 18.7962 72.3043 15.1273C73.4162 12.1225 74.6261 8.64843 74.7508 5.079C74.786 4.07137 74.7416 2.54338 74.0161 1.23844ZM34.3624 26.8803C34.4795 30.1361 33.9337 33.3851 32.6958 36.3454C31.6812 35.9458 30.6953 35.4922 29.7537 34.9958C27.1603 33.6287 24.7174 31.7579 22.7988 29.5835C21.2498 27.828 20.3408 25.6387 19.61 23.1503C18.6818 19.9898 18.5686 16.4859 20.2131 14.2151C21.0619 13.043 22.9676 12.41 24.987 12.325C27.1235 12.2351 29.2232 13.8793 30.9575 16.0839C32.0388 17.4586 32.6731 19.0885 33.2891 21.0233C33.9181 22.9993 34.2902 24.873 34.3624 26.8803Z" fill="#7469FF"/>
</svg>
