<svg width="157" height="123" viewBox="0 0 157 123" fill="none" xmlns="http://www.w3.org/2000/svg">
<g opacity="0.2">
<path fill-rule="evenodd" clip-rule="evenodd" d="M72.8146 33.8477C74.4152 33.3733 76.2166 33.1875 77.5567 33.0671C80.1217 32.8367 82.7536 32.9417 85.2439 33.1031C86.0191 33.1534 86.7721 33.2083 87.5088 33.2619C89.2103 33.3859 90.8245 33.5036 92.4225 33.5432C98.1444 33.6853 103.281 34.8241 108.512 36.2581C109.006 36.3936 109.439 36.523 109.859 36.6483C110.464 36.8292 111.041 37.0015 111.73 37.1709C112.817 37.4376 113.628 37.5384 114.187 37.4842C114.766 37.428 115.322 37.5549 115.795 37.8177C116.696 37.4286 117.596 37.0797 118.477 36.7563C122.68 35.2147 126.838 36.3361 130.019 37.1939C130.291 37.2673 130.556 37.3388 130.813 37.4064C133.337 38.0706 135.571 39.8786 137.223 41.7527C138.903 43.6579 140.296 45.9868 140.951 48.1658C141.878 51.2488 141.963 54.8521 141.308 58.2057C140.656 61.5467 139.214 64.9199 136.804 67.3579C133.975 70.2196 129.449 73.6045 124.58 75.5061C119.776 77.3823 113.842 78.0797 109.163 74.132C105.725 71.231 103.527 67.5337 102.468 63.4011C102.165 63.2867 101.877 63.1165 101.618 62.8897C101.033 62.3751 100.699 62.2005 100.477 62.1316C100.31 62.0798 100.017 62.0255 99.3909 62.1931C97.4006 62.7264 96.6853 63.7713 95.1796 65.9706C94.8141 66.5043 94.4021 67.1061 93.914 67.7851C93.7723 67.9823 93.6095 68.1552 93.4308 68.3032C93.3652 69.2551 93.2405 70.2042 93.0591 71.1342C92.407 74.4752 90.9647 77.8484 88.5549 80.2864C85.7262 83.148 81.2001 86.533 76.3307 88.4346C71.5263 90.3108 65.593 91.0082 60.914 87.0605C56.7911 83.582 54.4518 78.9586 53.7217 73.8127C48.3 70.8676 42.896 68.0134 37.406 65.2177C34.9579 63.971 33.4393 63.304 31.1778 63.14C30.3861 63.0826 29.5589 63.1734 28.4238 63.3115L28.318 63.3244C27.2854 63.4503 25.973 63.6103 24.6065 63.5196C23.4646 63.4437 22.67 63.9194 21.8928 65.1996C21.0397 66.6049 20.5152 68.5619 20.1252 70.4679C19.8186 71.9658 18.3559 72.9315 16.858 72.625C15.3601 72.3185 14.3943 70.8558 14.7008 69.3579C15.1008 67.4032 15.7696 64.6167 17.1599 62.3265C18.6261 59.9112 21.1249 57.7394 24.9735 57.995C25.7802 58.0486 26.6158 57.9539 27.7553 57.8153L27.8326 57.8059C28.8737 57.6791 30.1987 57.5177 31.5783 57.6178C35.0017 57.866 37.3476 58.9746 39.9185 60.2838C44.6028 62.6693 49.222 65.0954 53.8382 67.5811C53.8623 66.4488 54.0767 65.3374 54.4086 64.2958C55.3512 61.337 57.3 58.6287 58.9614 56.698C62.1218 53.0254 66.347 51.1083 70.2279 49.6848C74.4308 48.1432 78.5889 49.2646 81.7697 50.1224C82.0418 50.1958 82.3067 50.2672 82.5639 50.3349C85.0875 50.9991 87.3215 52.8071 88.974 54.6812C90.4614 56.3682 91.724 58.3874 92.4486 60.3406C93.758 58.8588 95.4695 57.5118 97.9578 56.8451C99.2453 56.5001 100.488 56.4364 101.703 56.7294C101.731 56.2476 101.795 55.7168 101.929 55.1868C101.971 55.0207 102.023 54.8431 102.087 54.6588C102.111 53.5244 102.325 52.4108 102.658 51.3673C103.6 48.4086 105.549 45.7002 107.211 43.7695C107.723 43.1741 108.263 42.6248 108.826 42.1163C108.547 42.0354 108.275 41.9551 108.023 41.8804C107.641 41.7675 107.302 41.6674 107.048 41.5978C101.977 40.2077 97.344 39.2038 92.2851 39.0783C90.5478 39.0351 88.7215 38.9022 86.9615 38.774C86.2556 38.7226 85.5603 38.672 84.8857 38.6283C82.4537 38.4706 80.173 38.3911 78.0522 38.5816C76.6947 38.7036 75.3986 38.8567 74.3878 39.1562C73.2715 39.487 72.48 40.1889 71.6987 41.3584C71.2936 41.9646 70.9221 42.6509 70.5116 43.4473C70.4353 43.5954 70.3566 43.7495 70.2756 43.908L70.2754 43.9085C69.9444 44.5564 69.5761 45.2771 69.1863 45.9523C68.4219 47.2764 66.7288 47.73 65.4047 46.9656C64.0806 46.2011 63.6269 44.508 64.3914 43.1839C64.7033 42.6437 64.9884 42.0861 65.3118 41.4537L65.317 41.4434C65.4048 41.2718 65.4953 41.0947 65.59 40.911C66.0139 40.0885 66.5047 39.1659 67.095 38.2825C68.3043 36.4725 70.0356 34.6713 72.8146 33.8477ZM107.729 55.7496C107.931 55.1531 107.923 54.5035 107.71 53.914C107.763 53.6379 107.837 53.3497 107.933 53.048C108.544 51.132 109.935 49.0921 111.407 47.381C113.605 44.8274 116.698 43.3062 120.384 41.9544C122.878 41.0396 125.38 41.6996 128.997 42.6535L129.011 42.6573C129.141 42.6915 129.272 42.726 129.404 42.7608C130.427 43.0302 131.772 43.9422 133.07 45.4144C134.341 46.8556 135.27 48.4996 135.649 49.7601C136.281 51.8606 136.382 54.5406 135.874 57.1451C135.363 59.762 134.294 62.0215 132.866 63.4656C130.465 65.895 126.571 68.7847 122.566 70.3487C118.496 71.9381 115.101 71.8974 112.734 69.9002C110.177 67.743 108.532 64.9756 107.763 61.7521C108.054 61.6237 108.326 61.4429 108.568 61.2095C109.667 60.1463 109.695 58.3937 108.632 57.2949C108.176 56.8234 107.878 56.3151 107.729 55.7496ZM59.4798 68.6781C59.6821 68.0815 59.6741 67.432 59.4606 66.8425C59.5133 66.5664 59.5879 66.2782 59.684 65.9765C60.2945 64.0604 61.6857 62.0206 63.1582 60.3095C65.3556 57.7559 68.4491 56.2347 72.1346 54.8829C74.6287 53.9681 77.131 54.6281 80.7474 55.582C80.8816 55.6174 81.0173 55.6532 81.1547 55.6893C82.1782 55.9587 83.5229 56.8707 84.8209 58.3429C86.0916 59.7841 87.0208 61.4281 87.3998 62.6886C88.0314 64.7891 88.1332 67.4691 87.6249 70.0736C87.1141 72.6905 86.0447 74.95 84.6172 76.3941C82.2158 78.8235 78.3215 81.7132 74.3166 83.2772C70.2466 84.8666 66.8515 84.8259 64.4844 82.8287C61.9275 80.6715 60.2824 77.904 59.5141 74.6806C59.8043 74.5522 60.0772 74.3714 60.3185 74.1379C61.4173 73.0748 61.4462 71.3222 60.3831 70.2234C59.9268 69.7518 59.6288 69.2436 59.4798 68.6781Z" fill="#7469FF"/>
</g>
</svg>
