<svg width="90" height="82" viewBox="0 0 90 82" fill="none" xmlns="http://www.w3.org/2000/svg">
<g opacity="0.2">
<path d="M64.1562 61.441C66.0291 56.6208 66.7724 51.3231 67.8253 46.2761C68.9694 40.7929 69.7736 35.3856 70.237 29.8055C70.5534 25.9963 70.7225 22.1802 71.0352 18.3723C71.1615 16.8345 71.9394 13.5144 71.2843 12.0095C71.2087 11.8358 71.0965 12.337 70.9839 12.4877C70.3326 13.3585 69.8417 14.3125 69.3011 15.2553C67.5984 18.225 65.9518 21.2201 64.4651 24.3097C62.954 27.4499 61.5202 30.6023 59.9227 33.6996C58.9224 35.639 57.5631 37.4571 56.6299 39.4018C56.3162 40.0556 56.1062 39.5556 55.9032 39.0894C54.7376 36.4115 53.3966 33.8258 52.0293 31.2451C48.7095 24.9792 44.636 19.4515 40.3308 13.868C39.8991 13.3081 39.5204 12.7325 39.0367 12.2142C38.2893 11.4133 38.3681 12.6367 38.2135 13.3005C36.3145 21.452 35.6333 29.4889 34.8476 37.8308C34.6227 40.2191 35.0128 43.4809 34.2486 45.8019C34.0758 46.3269 33.6629 45.4672 33.4251 45.2669C31.7814 43.8825 29.9632 42.7331 28.2005 41.5184C22.6411 37.6875 16.8338 34.0097 10.8489 30.904C10.0789 30.5044 10.0315 31.0259 10.1185 31.7514C10.4183 34.2523 11.1437 36.8074 12.0029 39.171C14.2617 45.3847 17.3462 51.3149 19.5014 57.5656C21.0175 61.963 23.1084 66.1914 24.966 70.4588" stroke="#7469FF" stroke-width="4" stroke-linecap="round"/>
<path d="M70.1869 61.0608C56.145 58.3896 41.7225 65.8972 29.0691 71.1354C26.0309 72.3931 23.0827 73.7251 20.1344 75.0085" stroke="#7469FF" stroke-width="4" stroke-linecap="round"/>
</g>
</svg>
