<svg width="30" height="30" viewBox="0 0 30 30" fill="none" xmlns="http://www.w3.org/2000/svg">
<path d="M14.5 14C16.0913 14 17.6174 13.3679 18.7426 12.2426C19.8679 11.1174 20.5 9.5913 20.5 8C20.5 6.4087 19.8679 4.88258 18.7426 3.75736C17.6174 2.63214 16.0913 2 14.5 2C12.9087 2 11.3826 2.63214 10.2574 3.75736C9.13214 4.88258 8.5 6.4087 8.5 8C8.5 9.5913 9.13214 11.1174 10.2574 12.2426C11.3826 13.3679 12.9087 14 14.5 14ZM12.3578 16.25C7.74063 16.25 4 19.9906 4 24.6078C4 25.3766 4.62344 26 5.39219 26H23.6078C24.3766 26 25 25.3766 25 24.6078C25 19.9906 21.2594 16.25 16.6422 16.25H12.3578Z" fill="white"/>
</svg>
