<svg width="35" height="36" viewBox="0 0 35 36" fill="none" xmlns="http://www.w3.org/2000/svg">
<path d="M9.66168 7.26078C9.21053 6.17098 8.02113 5.59093 6.88446 5.90146L1.72844 7.30765C0.708953 7.58889 0 8.51463 0 9.56927C0 24.0647 11.7534 35.8181 26.2488 35.8181C27.3035 35.8181 28.2292 35.1092 28.5105 34.0897L29.9167 28.9337C30.2272 27.797 29.6471 26.6076 28.5573 26.1564L22.9326 23.8128C21.9775 23.4144 20.8702 23.6897 20.2198 24.4924L17.8527 27.381C13.7279 25.4299 10.3882 22.0902 8.43713 17.9654L11.3257 15.6042C12.1284 14.9479 12.4038 13.8464 12.0053 12.8914L9.66168 7.26664V7.26078Z" fill="white"/>
<path d="M18.2732 8.54541C22.9591 8.54541 25.6368 11.0446 25.6368 15.0909" stroke="white" stroke-width="2.02299" stroke-linecap="round"/>
<path d="M20.7278 2C28.5377 2 33.0005 6.37355 33.0005 13.4545" stroke="white" stroke-width="2.02299" stroke-linecap="round"/>
</svg>
