<svg width="91" height="104" viewBox="0 0 91 104" fill="none" xmlns="http://www.w3.org/2000/svg">
<g filter="url(#filter0_f_589_350)">
<path d="M70.5 45.6C70.5 59.7387 45.5 84 45.5 84C45.5 84 20.5 59.7387 20.5 45.6C20.5 31.4615 31.6929 20 45.5 20C59.3071 20 70.5 31.4615 70.5 45.6Z" fill="#7469FF" fill-opacity="0.3"/>
</g>
<path d="M59.6667 48.0001C59.6667 56.2844 45.0833 70.5001 45.0833 70.5001C45.0833 70.5001 30.5 56.2844 30.5 48.0001C30.5 39.7158 37.0292 33.0001 45.0833 33.0001C53.1375 33.0001 59.6667 39.7158 59.6667 48.0001Z" fill="#7469FF"/>
<path d="M45.5 51.3332C48.2614 51.3332 50.5 49.0946 50.5 46.3332C50.5 43.5718 48.2614 41.3332 45.5 41.3332C42.7386 41.3332 40.5 43.5718 40.5 46.3332C40.5 49.0946 42.7386 51.3332 45.5 51.3332Z" fill="white" stroke="white" stroke-width="2.75" stroke-linecap="round" stroke-linejoin="round"/>
<defs>
<filter id="filter0_f_589_350" x="0.5" y="0" width="90" height="104" filterUnits="userSpaceOnUse" color-interpolation-filters="sRGB">
<feFlood flood-opacity="0" result="BackgroundImageFix"/>
<feBlend mode="normal" in="SourceGraphic" in2="BackgroundImageFix" result="shape"/>
<feGaussianBlur stdDeviation="10" result="effect1_foregroundBlur_589_350"/>
</filter>
</defs>
</svg>
