<svg width="80" height="92" viewBox="0 0 80 92" fill="none" xmlns="http://www.w3.org/2000/svg">
<g filter="url(#filter0_f_590_392)">
<path d="M63.1998 40.08C63.1998 53.1583 39.9998 75.6 39.9998 75.6C39.9998 75.6 16.7998 53.1583 16.7998 40.08C16.7998 27.0019 27.1868 16.4 39.9998 16.4C52.8128 16.4 63.1998 27.0019 63.1998 40.08Z" fill="#F86F6F" fill-opacity="0.3"/>
</g>
<path d="M51.3333 42.8C51.3333 49.4275 39.6667 60.8 39.6667 60.8C39.6667 60.8 28 49.4275 28 42.8C28 36.1726 33.2234 30.8 39.6667 30.8C46.11 30.8 51.3333 36.1726 51.3333 42.8Z" fill="#E65620"/>
<path d="M43.9 41.5C43.9 43.93 41.93 45.9 39.5 45.9C37.07 45.9 35.1 43.93 35.1 41.5C35.1 39.07 37.07 37.1 39.5 37.1C41.93 37.1 43.9 39.07 43.9 41.5Z" fill="white" stroke="white" stroke-width="2.2" stroke-linecap="round" stroke-linejoin="round"/>
<defs>
<filter id="filter0_f_590_392" x="0.799805" y="0.400024" width="78.3999" height="91.2" filterUnits="userSpaceOnUse" color-interpolation-filters="sRGB">
<feFlood flood-opacity="0" result="BackgroundImageFix"/>
<feBlend mode="normal" in="SourceGraphic" in2="BackgroundImageFix" result="shape"/>
<feGaussianBlur stdDeviation="8" result="effect1_foregroundBlur_590_392"/>
</filter>
</defs>
</svg>
