<svg width="24" height="24" viewBox="0 0 24 24" fill="none" xmlns="http://www.w3.org/2000/svg">
<g opacity="0.5">
<path d="M12.4258 21.5506C14.4297 19.0363 19 12.9424 19 9.51946C19 5.36809 15.6406 2 11.5 2C7.35938 2 4 5.36809 4 9.51946C4 12.9424 8.57031 19.0363 10.5742 21.5506C11.0547 22.1498 11.9453 22.1498 12.4258 21.5506ZM11.5 7.01297C12.163 7.01297 12.7989 7.27705 13.2678 7.74711C13.7366 8.21716 14 8.8547 14 9.51946C14 10.1842 13.7366 10.8218 13.2678 11.2918C12.7989 11.7619 12.163 12.0259 11.5 12.0259C10.837 12.0259 10.2011 11.7619 9.73223 11.2918C9.26339 10.8218 9 10.1842 9 9.51946C9 8.8547 9.26339 8.21716 9.73223 7.74711C10.2011 7.27705 10.837 7.01297 11.5 7.01297Z" fill="white"/>
</g>
</svg>
