<svg width="30" height="30" viewBox="0 0 30 30" fill="none" xmlns="http://www.w3.org/2000/svg">
<g clip-path="url(#clip0_603_3583)">
<path d="M3.75 7.72852C3.75 6.56836 4.69336 5.625 5.85352 5.625C6.41016 5.625 6.94336 5.84766 7.3418 6.24023L8.29102 7.18945C7.06055 9.46875 7.27148 12.3164 8.92969 14.3965L8.84766 14.4727C8.29688 15.0234 8.29688 15.9141 8.84766 16.459C9.39844 17.0039 10.2891 17.0098 10.834 16.459L20.2148 7.08984C20.7656 6.53906 20.7656 5.64844 20.2148 5.10352C19.6641 4.55859 18.7734 4.55273 18.2285 5.10352L18.1523 5.17969C16.0723 3.52148 13.2188 3.31055 10.9453 4.54102L9.99023 3.5918C8.89453 2.49023 7.40625 1.875 5.85352 1.875C2.61914 1.875 0 4.49414 0 7.72852V26.25C0 27.2871 0.837891 28.125 1.875 28.125C2.91211 28.125 3.75 27.2871 3.75 26.25V7.72852ZM15 20.625C15.4973 20.625 15.9742 20.4275 16.3258 20.0758C16.6775 19.7242 16.875 19.2473 16.875 18.75C16.875 18.2527 16.6775 17.7758 16.3258 17.4242C15.9742 17.0725 15.4973 16.875 15 16.875C14.5027 16.875 14.0258 17.0725 13.6742 17.4242C13.3225 17.7758 13.125 18.2527 13.125 18.75C13.125 19.2473 13.3225 19.7242 13.6742 20.0758C14.0258 20.4275 14.5027 20.625 15 20.625ZM18.75 24.375C18.75 23.8777 18.5525 23.4008 18.2008 23.0492C17.8492 22.6975 17.3723 22.5 16.875 22.5C16.3777 22.5 15.9008 22.6975 15.5492 23.0492C15.1975 23.4008 15 23.8777 15 24.375C15 24.8723 15.1975 25.3492 15.5492 25.7008C15.9008 26.0525 16.3777 26.25 16.875 26.25C17.3723 26.25 17.8492 26.0525 18.2008 25.7008C18.5525 25.3492 18.75 24.8723 18.75 24.375ZM18.75 16.875C19.2473 16.875 19.7242 16.6775 20.0758 16.3258C20.4275 15.9742 20.625 15.4973 20.625 15C20.625 14.5027 20.4275 14.0258 20.0758 13.6742C19.7242 13.3225 19.2473 13.125 18.75 13.125C18.2527 13.125 17.7758 13.3225 17.4242 13.6742C17.0725 14.0258 16.875 14.5027 16.875 15C16.875 15.4973 17.0725 15.9742 17.4242 16.3258C17.7758 16.6775 18.2527 16.875 18.75 16.875ZM22.5 20.625C22.5 20.1277 22.3025 19.6508 21.9508 19.2992C21.5992 18.9475 21.1223 18.75 20.625 18.75C20.1277 18.75 19.6508 18.9475 19.2992 19.2992C18.9475 19.6508 18.75 20.1277 18.75 20.625C18.75 21.1223 18.9475 21.5992 19.2992 21.9508C19.6508 22.3025 20.1277 22.5 20.625 22.5C21.1223 22.5 21.5992 22.3025 21.9508 21.9508C22.3025 21.5992 22.5 21.1223 22.5 20.625ZM22.5 13.125C22.9973 13.125 23.4742 12.9275 23.8258 12.5758C24.1775 12.2242 24.375 11.7473 24.375 11.25C24.375 10.7527 24.1775 10.2758 23.8258 9.92418C23.4742 9.57254 22.9973 9.375 22.5 9.375C22.0027 9.375 21.5258 9.57254 21.1742 9.92418C20.8225 10.2758 20.625 10.7527 20.625 11.25C20.625 11.7473 20.8225 12.2242 21.1742 12.5758C21.5258 12.9275 22.0027 13.125 22.5 13.125ZM26.25 16.875C26.25 16.3777 26.0525 15.9008 25.7008 15.5492C25.3492 15.1975 24.8723 15 24.375 15C23.8777 15 23.4008 15.1975 23.0492 15.5492C22.6975 15.9008 22.5 16.3777 22.5 16.875C22.5 17.3723 22.6975 17.8492 23.0492 18.2008C23.4008 18.5525 23.8777 18.75 24.375 18.75C24.8723 18.75 25.3492 18.5525 25.7008 18.2008C26.0525 17.8492 26.25 17.3723 26.25 16.875ZM28.125 15C28.6223 15 29.0992 14.8025 29.4508 14.4508C29.8025 14.0992 30 13.6223 30 13.125C30 12.6277 29.8025 12.1508 29.4508 11.7992C29.0992 11.4475 28.6223 11.25 28.125 11.25C27.6277 11.25 27.1508 11.4475 26.7992 11.7992C26.4475 12.1508 26.25 12.6277 26.25 13.125C26.25 13.6223 26.4475 14.0992 26.7992 14.4508C27.1508 14.8025 27.6277 15 28.125 15Z" fill="white"/>
</g>
<defs>
<clipPath id="clip0_603_3583">
<rect width="30" height="30" fill="white"/>
</clipPath>
</defs>
</svg>
