<svg width="30" height="30" viewBox="0 0 30 30" fill="none" xmlns="http://www.w3.org/2000/svg">
<g clip-path="url(#clip0_587_2795)">
<path d="M5.375 4.3125C5.375 2.34756 6.94453 0.75 8.875 0.75H21.125C23.0555 0.75 24.625 2.34756 24.625 4.3125V25.6875C24.625 27.6524 23.0555 29.25 21.125 29.25H8.875C6.94453 29.25 5.375 27.6524 5.375 25.6875V4.3125ZM16.75 25.6875C16.75 25.2151 16.5656 24.762 16.2374 24.428C15.9092 24.0939 15.4641 23.9062 15 23.9062C14.5359 23.9062 14.0908 24.0939 13.7626 24.428C13.4344 24.762 13.25 25.2151 13.25 25.6875C13.25 26.1599 13.4344 26.613 13.7626 26.947C14.0908 27.2811 14.5359 27.4688 15 27.4688C15.4641 27.4688 15.9092 27.2811 16.2374 26.947C16.5656 26.613 16.75 26.1599 16.75 25.6875ZM21.125 4.3125H8.875V22.125H21.125V4.3125Z" fill="white"/>
</g>
<defs>
<clipPath id="clip0_587_2795">
<rect width="21" height="28.5" fill="white" transform="translate(4.5 0.75)"/>
</clipPath>
</defs>
</svg>
