<svg width="201" height="73" viewBox="0 0 201 73" fill="none" xmlns="http://www.w3.org/2000/svg">
<path d="M112.245 11.4752C94.2613 15.0042 76.4813 19.1237 58.7199 23.0729C42.1309 26.7614 23.5788 30.9718 11.538 39.4285C3.87206 44.8127 0.831412 50.9919 4.63919 57.9154C6.16514 60.6899 9.05448 63.6116 12.8861 65.3498C18.4672 67.8816 25.5819 68.4306 32.2346 69.0174C50.9167 70.6653 68.2227 70.2106 86.7118 67.8775C109.261 65.0319 131.326 62.2871 152.37 56.2302C166.482 52.1687 181.801 47.4386 189.322 38.4868C195.033 31.6895 201.659 20.0723 195.587 12.5656C189.135 4.59004 173.579 3 160.855 3C139.851 3 119.79 4.88692 99.5579 8.35276C92.3762 9.58301 85.4676 11.2652 79.02 13.6064C76.4591 14.5362 74.5764 15.871 72.2797 16.828" stroke="#20E6C2" stroke-width="4.15743" stroke-linecap="round"/>
</svg>
