<svg width="83" height="83" viewBox="0 0 83 83" fill="none" xmlns="http://www.w3.org/2000/svg">
<g opacity="0.2">
<g clip-path="url(#clip0_632_614)">
<path fill-rule="evenodd" clip-rule="evenodd" d="M12.9214 55.2729C12.7509 54.9997 12.36 54.579 12.1999 54.0823C11.433 51.7131 10.6355 49.346 10.0495 46.9298C9.83208 46.0334 10.2796 44.9976 10.2223 44.0364C10.0458 41.0424 10.6891 38.213 11.7836 35.464C12.2624 34.2615 12.6712 32.9964 13.3614 31.9205C16.5252 26.9935 19.9108 22.2349 24.1974 18.1821C25.2309 17.2052 26.2927 16.3906 27.6307 15.8031C30.2032 14.6721 32.6939 13.422 35.3967 12.5389C38.5888 11.4987 41.7391 11.2567 44.9974 11.6677C47.5737 11.9924 50.1514 12.32 52.7091 12.763C53.7634 12.9462 54.7739 13.41 55.7857 13.795C56.6621 14.1293 57.1677 14.8255 57.3866 15.7205C57.6956 16.9856 56.7328 18.1836 55.4313 18.0868C54.7947 18.0399 54.1469 17.8642 53.5468 17.6334C49.5334 16.0921 45.2938 15.8076 41.0883 15.684C39.2127 15.6297 37.2403 16.3154 35.4332 16.9893C32.9068 17.9327 30.3544 18.9572 28.0789 20.3719C26.3686 21.433 24.9137 23.0368 23.6345 24.6302C21.4 27.4142 19.2764 30.3032 17.3137 33.2846C15.3837 36.2152 14.4113 39.5018 14.1596 43.055C13.8878 46.8472 14.5111 50.3877 16.3055 53.719C16.759 54.5626 16.9362 55.3697 16.2385 56.1121C15.6436 56.7413 14.4805 56.5894 13.5774 55.8545C13.4091 55.7175 13.2527 55.5671 12.9214 55.2729Z" fill="white"/>
<path fill-rule="evenodd" clip-rule="evenodd" d="M33.9336 32.7431C36.4317 29.8251 39.2798 27.6919 42.7637 26.5742C47.095 25.1856 51.4568 24.6867 55.6726 27.0083C56.4164 27.4171 57.1097 27.9808 57.6897 28.601C58.4417 29.4066 58.4134 30.5905 57.7857 31.2689C57.2519 31.8429 56.2921 32.0075 55.4001 31.5086C53.8729 30.6546 52.3346 29.9517 50.558 29.7372C47.9728 29.4275 44.4189 30.0954 42.174 31.5287C40.1755 32.8064 38.0237 33.8801 36.4116 35.6932C33.8086 38.6194 31.4437 41.699 30.2122 45.4904C29.6776 47.1375 29.1623 48.783 29.4684 50.5708C29.5547 51.0801 29.382 51.6355 29.3194 52.1687C29.1802 53.3563 29.0767 54.5215 29.6277 55.6682C29.8533 56.1351 29.9151 56.7136 29.9278 57.2445C29.9523 58.2251 29.3671 59.0025 28.56 59.2214C27.6136 59.4797 26.796 59.2117 26.257 58.4448C25.8296 57.8372 25.5243 57.1194 25.2897 56.4098C25.0537 55.6972 24.8341 54.9325 24.8445 54.1939C24.9048 49.7524 25.0895 45.3862 27.4356 41.329C29.2926 38.1138 31.1132 34.9486 33.9336 32.7431Z" fill="white"/>
<path fill-rule="evenodd" clip-rule="evenodd" d="M55.6995 40.5911C55.7434 40.9657 55.9325 41.5941 55.8566 42.1898C55.7635 42.9142 55.1254 43.2992 54.4493 43.3141C53.5945 43.3349 52.7293 43.2113 51.8783 43.087C49.4457 42.7318 47.4726 43.4451 45.6975 45.2083C43.5895 47.3028 41.8986 49.5582 40.7363 52.3437C40.0639 53.9557 40.1644 55.4992 40.0073 57.0889C39.8718 58.4709 39.571 58.9489 38.7408 59.0688C37.6917 59.2199 36.8607 58.7419 36.4192 57.7255C36.3321 57.5253 36.2554 57.322 36.1913 57.115C35.277 54.1784 36.6366 48.3661 38.7899 46.1174C39.9172 44.941 41.119 43.836 42.2322 42.6469C45.1606 39.5145 48.8352 38.7096 52.9185 39.1533C53.9065 39.2613 54.8276 39.5733 55.6995 40.5911Z" fill="white"/>
<path fill-rule="evenodd" clip-rule="evenodd" d="M52.5183 54.0504C51.8415 55.1278 51.2086 56.0079 50.7149 56.9603C50.3754 57.614 50.1483 58.3564 50.0299 59.0853C49.9696 59.4539 50.1431 60.0607 50.4216 60.2498C51.4766 60.9639 52.5928 61.602 53.7417 62.1537C54.0447 62.2989 54.6754 62.1686 54.9345 61.9259C56.1191 60.8262 57.28 59.6892 58.3373 58.4681C58.8585 57.8694 58.8667 57.0719 58.2918 56.3854C56.8295 54.6371 55.1497 53.416 52.5183 54.0504ZM58.6552 62.8812C58.1206 63.4158 57.6247 63.9981 57.0439 64.4776C55.2807 65.9385 52.9949 66.0159 51.0738 64.7233C50.6293 64.4247 50.2265 64.0249 49.741 63.8298C46.5698 62.5588 45.8059 58.2134 48.0813 55.2812C48.7418 54.4287 49.4692 53.6223 50.2116 52.8397C52.0016 50.9514 54.1907 50.5092 56.6753 51.4555C58.5681 52.1748 59.9463 53.5471 61.1838 55.0497C62.1682 56.2455 62.2032 57.7294 61.5278 59.0302C60.7929 60.4427 59.7624 61.6996 58.8615 63.0249C58.793 62.9773 58.7245 62.9296 58.6552 62.8812Z" fill="white"/>
</g>
</g>
<defs>
<clipPath id="clip0_632_614">
<rect width="59.8948" height="56.3568" fill="white" transform="translate(0 42.3521) rotate(-45)"/>
</clipPath>
</defs>
</svg>
